<svg width="18" height="18" viewBox="0 0 18 18" fill="none" xmlns="http://www.w3.org/2000/svg">
<path d="M1.5 6.30002C1.49991 5.7618 1.6071 5.22896 1.8153 4.73263C2.02351 4.23631 2.32855 3.78647 2.71261 3.40939C3.09667 3.03232 3.55203 2.73558 4.05209 2.53652C4.55215 2.33745 5.08687 2.24006 5.625 2.25002C6.26172 2.24664 6.89189 2.37863 7.47374 2.63723C8.05559 2.89583 8.57584 3.27514 9 3.75002C9.42416 3.27514 9.94441 2.89583 10.5263 2.63723C11.1081 2.37863 11.7383 2.24664 12.375 2.25002C12.9131 2.24006 13.4479 2.33745 13.9479 2.53652C14.448 2.73558 14.9033 3.03232 15.2874 3.40939C15.6714 3.78647 15.9765 4.23631 16.1847 4.73263C16.3929 5.22896 16.5001 5.7618 16.5 6.30002C16.5 10.317 11.7157 13.35 9 15.75C6.29025 13.3298 1.5 10.32 1.5 6.30002Z" fill="black"/>
</svg>
